<?xml version="1.0" encoding="UTF-8" standalone="no"?>
<svg
   xmlns:dc="http://purl.org/dc/elements/1.1/"
   xmlns:cc="http://creativecommons.org/ns#"
   xmlns:rdf="http://www.w3.org/1999/02/22-rdf-syntax-ns#"
   xmlns:svg="http://www.w3.org/2000/svg"
   xmlns="http://www.w3.org/2000/svg"
   xmlns:sodipodi="http://sodipodi.sourceforge.net/DTD/sodipodi-0.dtd"
   xmlns:inkscape="http://www.inkscape.org/namespaces/inkscape"
   viewBox="0 0 512 512"
   version="1.1"
   id="svg9123"
   sodipodi:docname="opengl_info.bw.svg"
   width="512"
   height="512"
   inkscape:version="0.92.2 5c3e80d, 2017-08-06">
  <metadata
     id="metadata9129">
    <rdf:RDF>
      <cc:Work
         rdf:about="">
        <dc:format>image/svg+xml</dc:format>
        <dc:type
           rdf:resource="http://purl.org/dc/dcmitype/StillImage" />
        <dc:title />
      </cc:Work>
    </rdf:RDF>
  </metadata>
  <defs
     id="defs9127" />
  <sodipodi:namedview
     pagecolor="#ffffff"
     bordercolor="#666666"
     borderopacity="1"
     objecttolerance="10"
     gridtolerance="10"
     guidetolerance="10"
     inkscape:pageopacity="0"
     inkscape:pageshadow="2"
     inkscape:window-width="1440"
     inkscape:window-height="855"
     id="namedview9125"
     showgrid="false"
     inkscape:zoom="0.4609375"
     inkscape:cx="-292.33898"
     inkscape:cy="256"
     inkscape:window-x="0"
     inkscape:window-y="1"
     inkscape:window-maximized="1"
     inkscape:current-layer="svg9123" />
  <path
     d="m 203.22034,402.84396 h 17.45762 v -126.0947 h -17.45762 c -9.64185,0 -17.45763,-7.81578 -17.45763,-17.45762 v -41.69842 c 0,-9.64185 7.81578,-17.45763 17.45763,-17.45763 h 97.76271 c 9.64185,0 17.45763,7.81578 17.45763,17.45763 v 185.25074 h 17.45762 c 9.64185,0 17.45763,7.81578 17.45763,17.45762 V 462 c 0,9.64185 -7.81578,17.45763 -17.45763,17.45763 H 203.22034 c -9.64185,0 -17.45763,-7.81578 -17.45763,-17.45763 v -41.69842 c 0,-9.64184 7.81578,-17.45762 17.45763,-17.45762 z M 269.55932,32.542373 c -34.71013,0 -62.84746,28.13733 -62.84746,62.847458 0,34.710129 28.13733,62.847459 62.84746,62.847459 34.71013,0 62.84746,-28.13733 62.84746,-62.847459 0,-34.710128 -28.13821,-62.847458 -62.84746,-62.847458 z"
     id="path9121"
     inkscape:connector-curvature="0"
     style="stroke-width:0.87288135;fill:#505050;fill-opacity:1" />
</svg>
