<?xml version="1.0" encoding="UTF-8" standalone="no"?>
<svg
   xmlns:dc="http://purl.org/dc/elements/1.1/"
   xmlns:cc="http://creativecommons.org/ns#"
   xmlns:rdf="http://www.w3.org/1999/02/22-rdf-syntax-ns#"
   xmlns:svg="http://www.w3.org/2000/svg"
   xmlns="http://www.w3.org/2000/svg"
   xmlns:sodipodi="http://sodipodi.sourceforge.net/DTD/sodipodi-0.dtd"
   xmlns:inkscape="http://www.inkscape.org/namespaces/inkscape"
   fill="#000000"
   height="24"
   viewBox="0 0 24 24"
   width="24"
   version="1.1"
   id="svg3139"
   sodipodi:docname="animation_mode.bw.svg"
   inkscape:version="0.92.2 5c3e80d, 2017-08-06">
  <metadata
     id="metadata3145">
    <rdf:RDF>
      <cc:Work
         rdf:about="">
        <dc:format>image/svg+xml</dc:format>
        <dc:type
           rdf:resource="http://purl.org/dc/dcmitype/StillImage" />
      </cc:Work>
    </rdf:RDF>
  </metadata>
  <defs
     id="defs3143" />
  <sodipodi:namedview
     pagecolor="#ffffff"
     bordercolor="#666666"
     borderopacity="1"
     objecttolerance="10"
     gridtolerance="10"
     guidetolerance="10"
     inkscape:pageopacity="0"
     inkscape:pageshadow="2"
     inkscape:window-width="1440"
     inkscape:window-height="855"
     id="namedview3141"
     showgrid="false"
     inkscape:zoom="9.8333333"
     inkscape:cx="-6.2033899"
     inkscape:cy="12"
     inkscape:window-x="0"
     inkscape:window-y="1"
     inkscape:window-maximized="1"
     inkscape:current-layer="svg3139" />
  <path
     d="M0 0h24v24H0z"
     fill="none"
     id="path3135" />
  <path
     d="M 12.50678,10.440678 C 11.867458,8.6240678 10.13661,7.3220339 8.1016949,7.3220339 5.5210169,7.3220339 3.4237288,9.419322 3.4237288,12 c 0,2.580678 2.0972881,4.677966 4.6779661,4.677966 2.0349151,0 3.7657631,-1.302034 4.4050851,-3.118644 h 3.391525 v 3.118644 h 3.118644 v -3.118644 h 1.559322 v -3.118644 z m -4.4050851,3.118644 c -0.8576271,0 -1.559322,-0.701695 -1.559322,-1.559322 0,-0.857627 0.7016949,-1.559322 1.559322,-1.559322 0.8576271,0 1.559322,0.701695 1.559322,1.559322 0,0.857627 -0.7016949,1.559322 -1.559322,1.559322 z"
     id="path3137"
     inkscape:connector-curvature="0"
     style="stroke-width:0.779661;fill:#505050;fill-opacity:1" />
</svg>
