<?xml version="1.0" encoding="UTF-8" standalone="no"?>
<svg
   xmlns:dc="http://purl.org/dc/elements/1.1/"
   xmlns:cc="http://creativecommons.org/ns#"
   xmlns:rdf="http://www.w3.org/1999/02/22-rdf-syntax-ns#"
   xmlns:svg="http://www.w3.org/2000/svg"
   xmlns="http://www.w3.org/2000/svg"
   xmlns:sodipodi="http://sodipodi.sourceforge.net/DTD/sodipodi-0.dtd"
   xmlns:inkscape="http://www.inkscape.org/namespaces/inkscape"
   viewBox="0 0 512 512"
   id="svg2"
   version="1.1"
   inkscape:version="0.91 r13725"
   sodipodi:docname="auto_crop.bw.svg">
  <metadata
     id="metadata10">
    <rdf:RDF>
      <cc:Work
         rdf:about="">
        <dc:format>image/svg+xml</dc:format>
        <dc:type
           rdf:resource="http://purl.org/dc/dcmitype/StillImage" />
        <dc:title></dc:title>
      </cc:Work>
    </rdf:RDF>
  </metadata>
  <defs
     id="defs8" />
  <sodipodi:namedview
     pagecolor="#ffffff"
     bordercolor="#666666"
     borderopacity="1"
     objecttolerance="10"
     gridtolerance="10"
     guidetolerance="10"
     inkscape:pageopacity="0"
     inkscape:pageshadow="2"
     inkscape:window-width="1920"
     inkscape:window-height="1142"
     id="namedview6"
     showgrid="false"
     inkscape:zoom="0.921875"
     inkscape:cx="260.33898"
     inkscape:cy="256"
     inkscape:window-x="0"
     inkscape:window-y="0"
     inkscape:window-maximized="1"
     inkscape:current-layer="svg2" />
  <path
     d="m 407.32204,392.67797 -296.1356,0 c -18.871525,0 -34.169491,-15.29797 -34.169491,-34.1695 l 0,-205.01694 c 0,-18.87153 15.297966,-34.1695 34.169491,-34.1695 l 296.1356,0 c 18.87152,0 34.16949,15.29797 34.16949,34.1695 l 0,205.01694 c 0,18.87153 -15.29797,34.1695 -34.16949,34.1695 z M 156.74577,159.18644 c -22.01655,0 -39.86441,17.84787 -39.86441,39.86441 0,22.01654 17.84786,39.8644 39.86441,39.8644 22.01654,0 39.8644,-17.84786 39.8644,-39.8644 0,-22.01654 -17.84786,-39.86441 -39.8644,-39.86441 z m -34.1695,187.9322 273.35594,0 0,-79.72881 -62.29882,-62.29881 c -3.33579,-3.3358 -8.74454,-3.3358 -12.08105,0 l -96.46759,96.4683 -39.51915,-39.51915 c -3.3358,-3.3358 -8.74455,-3.3358 -12.08105,0 l -50.90828,50.90898 0,34.16949 z"
     id="path4"
     inkscape:connector-curvature="0" />
  <path
     style="fill:none;fill-rule:evenodd;stroke:#000000;stroke-width:20;stroke-linecap:round;stroke-linejoin:miter;stroke-miterlimit:4;stroke-dasharray:none;stroke-opacity:1"
     d="m 441.49153,68.338983 0,362.305087"
     id="path4138"
     inkscape:connector-curvature="0" />
  <path
     inkscape:connector-curvature="0"
     id="path4140"
     d="m 441.27962,69.638655 0,378.146425"
     style="fill:none;fill-rule:evenodd;stroke:#000000;stroke-width:20.42064095;stroke-linecap:round;stroke-linejoin:miter;stroke-miterlimit:4;stroke-dasharray:none;stroke-opacity:1" />
  <path
     style="fill:none;fill-rule:evenodd;stroke:#000000;stroke-width:20.42064095;stroke-linecap:round;stroke-linejoin:miter;stroke-miterlimit:4;stroke-dasharray:none;stroke-opacity:1"
     d="m 78.313602,69.638655 0,378.146425"
     id="path4161"
     inkscape:connector-curvature="0" />
  <path
     style="fill:none;fill-rule:evenodd;stroke:#000000;stroke-width:22.64892769;stroke-linecap:round;stroke-linejoin:miter;stroke-miterlimit:4;stroke-dasharray:none;stroke-opacity:1"
     d="m 24.676673,123.36835 468.070377,0"
     id="path4163"
     inkscape:connector-curvature="0" />
  <path
     inkscape:connector-curvature="0"
     id="path4165"
     d="m 21.422436,390.80114 468.070374,0"
     style="fill:none;fill-rule:evenodd;stroke:#000000;stroke-width:22.64892769;stroke-linecap:round;stroke-linejoin:miter;stroke-miterlimit:4;stroke-dasharray:none;stroke-opacity:1" />
</svg>
