<?xml version="1.0" encoding="UTF-8" standalone="no"?>
<svg
   xmlns:dc="http://purl.org/dc/elements/1.1/"
   xmlns:cc="http://creativecommons.org/ns#"
   xmlns:rdf="http://www.w3.org/1999/02/22-rdf-syntax-ns#"
   xmlns:svg="http://www.w3.org/2000/svg"
   xmlns="http://www.w3.org/2000/svg"
   xmlns:sodipodi="http://sodipodi.sourceforge.net/DTD/sodipodi-0.dtd"
   xmlns:inkscape="http://www.inkscape.org/namespaces/inkscape"
   viewBox="0 0 512 512"
   version="1.1"
   id="svg10974"
   sodipodi:docname="save_picture.bw.svg"
   width="512"
   height="512"
   inkscape:version="0.92.2 5c3e80d, 2017-08-06">
  <metadata
     id="metadata10980">
    <rdf:RDF>
      <cc:Work
         rdf:about="">
        <dc:format>image/svg+xml</dc:format>
        <dc:type
           rdf:resource="http://purl.org/dc/dcmitype/StillImage" />
        <dc:title />
      </cc:Work>
    </rdf:RDF>
  </metadata>
  <defs
     id="defs10978" />
  <sodipodi:namedview
     pagecolor="#ffffff"
     bordercolor="#666666"
     borderopacity="1"
     objecttolerance="10"
     gridtolerance="10"
     guidetolerance="10"
     inkscape:pageopacity="0"
     inkscape:pageshadow="2"
     inkscape:window-width="1440"
     inkscape:window-height="855"
     id="namedview10976"
     showgrid="false"
     inkscape:zoom="0.4609375"
     inkscape:cx="-164.33898"
     inkscape:cy="256"
     inkscape:window-x="0"
     inkscape:window-y="1"
     inkscape:window-maximized="1"
     inkscape:current-layer="svg10974" />
  <path
     d="M 438.15296,150.42415 366.4572,78.728395 A 41.026634,41.026634 0 0 0 337.4471,66.711865 H 108.28087 c -22.658666,0 -41.026632,18.367966 -41.026632,41.026635 v 300.86198 c 0,22.65867 18.367966,41.02664 41.026632,41.02664 h 300.86198 c 22.65867,0 41.02664,-18.36797 41.02664,-41.02664 V 179.43425 a 41.026634,41.026634 0 0 0 -12.01653,-29.0101 z m -179.4411,244.50079 c -30.21099,0 -54.70218,-24.49119 -54.70218,-54.70218 0,-30.21099 24.49119,-54.70218 54.70218,-54.70218 30.21099,0 54.70218,24.49119 54.70218,54.70218 0,30.21099 -24.49119,54.70218 -54.70218,54.70218 z m 82.05327,-260.27981 v 85.91661 c 0,5.66424 -4.59242,10.25666 -10.25666,10.25666 h -198.2954 c -5.66424,0 -10.25666,-4.59242 -10.25666,-10.25666 V 131.6707 c 0,-5.66424 4.59242,-10.25666 10.25666,-10.25666 h 195.32097 c 2.72058,0 5.32919,1.08037 7.25231,3.00435 l 2.97443,2.97443 a 10.25324,10.25324 0 0 1 3.00435,7.25231 z"
     id="path10972"
     inkscape:connector-curvature="0"
     style="stroke-width:0.85472155;fill:#505050;fill-opacity:1" />
</svg>
