<?xml version="1.0" encoding="UTF-8" standalone="no"?>
<svg
   xmlns:dc="http://purl.org/dc/elements/1.1/"
   xmlns:cc="http://creativecommons.org/ns#"
   xmlns:rdf="http://www.w3.org/1999/02/22-rdf-syntax-ns#"
   xmlns:svg="http://www.w3.org/2000/svg"
   xmlns="http://www.w3.org/2000/svg"
   xmlns:sodipodi="http://sodipodi.sourceforge.net/DTD/sodipodi-0.dtd"
   xmlns:inkscape="http://www.inkscape.org/namespaces/inkscape"
   viewBox="0 0 448 512"
   id="svg2"
   version="1.1"
   inkscape:version="0.91 r13725"
   sodipodi:docname="delete_modifier.bw.svg">
  <metadata
     id="metadata10">
    <rdf:RDF>
      <cc:Work
         rdf:about="">
        <dc:format>image/svg+xml</dc:format>
        <dc:type
           rdf:resource="http://purl.org/dc/dcmitype/StillImage" />
      </cc:Work>
    </rdf:RDF>
  </metadata>
  <defs
     id="defs8" />
  <sodipodi:namedview
     pagecolor="#ffffff"
     bordercolor="#666666"
     borderopacity="1"
     objecttolerance="10"
     gridtolerance="10"
     guidetolerance="10"
     inkscape:pageopacity="0"
     inkscape:pageshadow="2"
     inkscape:window-width="1920"
     inkscape:window-height="1142"
     id="namedview6"
     showgrid="false"
     inkscape:zoom="0.4609375"
     inkscape:cx="-49.355932"
     inkscape:cy="256"
     inkscape:window-x="0"
     inkscape:window-y="0"
     inkscape:window-maximized="1"
     inkscape:current-layer="svg2" />
  <path
     d="m 56.40678,127.31235 0,-20.94915 c 0,-9.950851 8.005569,-17.95642 17.956416,-17.95642 l 83.796614,0 7.03293,-13.991042 c 2.99273,-6.135108 9.20266,-9.950847 16.01113,-9.950847 l 85.51744,0 c 6.80847,0 13.0184,3.815739 16.08595,9.950847 l 7.03293,13.991042 83.79661,0 c 9.95085,0 17.95642,8.005569 17.95642,17.95642 l 0,20.94915 c 0,4.93801 -4.04019,8.97821 -8.97821,8.97821 l -317.230022,0 c -4.938015,0 -8.978208,-4.0402 -8.978208,-8.97821 z m 310.646,42.42203 -15.26295,244.13245 c -1.19709,18.92905 -16.90896,33.66828 -35.83801,33.66828 l -183.90364,0 c -18.92905,0 -34.640916,-14.73923 -35.838011,-33.66828 L 80.947215,169.73438 c -0.299273,-5.16247 3.815739,-9.50193 8.978209,-9.50193 l 268.223966,0 c 5.08766,0 9.20267,4.33946 8.90339,9.50193 z"
     id="path4"
     inkscape:connector-curvature="0" />
</svg>
