<?xml version="1.0" encoding="UTF-8" standalone="no"?>
<svg
   xmlns:dc="http://purl.org/dc/elements/1.1/"
   xmlns:cc="http://creativecommons.org/ns#"
   xmlns:rdf="http://www.w3.org/1999/02/22-rdf-syntax-ns#"
   xmlns:svg="http://www.w3.org/2000/svg"
   xmlns="http://www.w3.org/2000/svg"
   xmlns:sodipodi="http://sodipodi.sourceforge.net/DTD/sodipodi-0.dtd"
   xmlns:inkscape="http://www.inkscape.org/namespaces/inkscape"
   fill="#000000"
   height="24"
   viewBox="0 0 24 24"
   width="24"
   version="1.1"
   id="svg6518"
   sodipodi:docname="animation_settings.bw.svg"
   inkscape:version="0.92.2 5c3e80d, 2017-08-06">
  <metadata
     id="metadata6524">
    <rdf:RDF>
      <cc:Work
         rdf:about="">
        <dc:format>image/svg+xml</dc:format>
        <dc:type
           rdf:resource="http://purl.org/dc/dcmitype/StillImage" />
      </cc:Work>
    </rdf:RDF>
  </metadata>
  <defs
     id="defs6522" />
  <sodipodi:namedview
     pagecolor="#ffffff"
     bordercolor="#666666"
     borderopacity="1"
     objecttolerance="10"
     gridtolerance="10"
     guidetolerance="10"
     inkscape:pageopacity="0"
     inkscape:pageshadow="2"
     inkscape:window-width="1440"
     inkscape:window-height="855"
     id="namedview6520"
     showgrid="false"
     inkscape:zoom="9.8333333"
     inkscape:cx="-6.2033899"
     inkscape:cy="12"
     inkscape:window-x="0"
     inkscape:window-y="1"
     inkscape:window-maximized="1"
     inkscape:current-layer="svg6518" />
  <path
     d="m 11.99178,3.779661 c -4.5376275,0 -8.212119,3.6827119 -8.212119,8.220339 0,4.537627 3.6744915,8.220339 8.212119,8.220339 4.545847,0 8.228559,-3.682712 8.228559,-8.220339 0,-4.5376271 -3.682712,-8.220339 -8.228559,-8.220339 z M 12,18.576271 C 8.3666102,18.576271 5.4237288,15.63339 5.4237288,12 5.4237288,8.3666102 8.3666102,5.4237288 12,5.4237288 c 3.63339,0 6.576271,2.9428814 6.576271,6.5762712 0,3.63339 -2.942881,6.576271 -6.576271,6.576271 z"
     id="path6512"
     inkscape:connector-curvature="0"
     style="stroke-width:0.82203388;fill:#505050;fill-opacity:1" />
  <path
     d="M 2.1355932,2.1355932 H 21.864407 V 21.864407 H 2.1355932 Z"
     id="path6514"
     inkscape:connector-curvature="0"
     style="fill:none;stroke-width:0.82203388" />
  <path
     d="m 12.411017,7.8898305 h -1.233051 v 4.9322035 l 4.315678,2.589407 0.616525,-1.011102 -3.699152,-2.194831 z"
     id="path6516"
     inkscape:connector-curvature="0"
     style="stroke-width:0.82203388;fill:#505050;fill-opacity:1" />
</svg>
