<?xml version="1.0" encoding="UTF-8" standalone="no"?>
<svg
   xmlns:dc="http://purl.org/dc/elements/1.1/"
   xmlns:cc="http://creativecommons.org/ns#"
   xmlns:rdf="http://www.w3.org/1999/02/22-rdf-syntax-ns#"
   xmlns:svg="http://www.w3.org/2000/svg"
   xmlns="http://www.w3.org/2000/svg"
   xmlns:sodipodi="http://sodipodi.sourceforge.net/DTD/sodipodi-0.dtd"
   xmlns:inkscape="http://www.inkscape.org/namespaces/inkscape"
   viewBox="0 0 512 512"
   id="svg2"
   version="1.1"
   inkscape:version="0.91 r13725"
   sodipodi:docname="mode_orbit.bw.svg">
  <metadata
     id="metadata10">
    <rdf:RDF>
      <cc:Work
         rdf:about="">
        <dc:format>image/svg+xml</dc:format>
        <dc:type
           rdf:resource="http://purl.org/dc/dcmitype/StillImage" />
        <dc:title />
      </cc:Work>
    </rdf:RDF>
  </metadata>
  <defs
     id="defs8" />
  <sodipodi:namedview
     pagecolor="#ffffff"
     bordercolor="#666666"
     borderopacity="1"
     objecttolerance="10"
     gridtolerance="10"
     guidetolerance="10"
     inkscape:pageopacity="0"
     inkscape:pageshadow="2"
     inkscape:window-width="1920"
     inkscape:window-height="1142"
     id="namedview6"
     showgrid="false"
     inkscape:zoom="0.4609375"
     inkscape:cx="-119.32204"
     inkscape:cy="251.66102"
     inkscape:window-x="0"
     inkscape:window-y="0"
     inkscape:window-maximized="1"
     inkscape:current-layer="svg2" />
  <path
     inkscape:connector-curvature="0"
     d="m 197.81479,101.95867 c -23.34655,-5.115373 -47.38208,-1.23147 -68.01164,11.07069 -37.126579,22.13974 -54.037018,66.69448 -41.864659,107.29434 0.8861,2.95549 -0.32441,6.13527 -2.975909,7.71329 l -27.48042,16.35469 c -3.59576,2.13999 -8.27013,0.50128 -9.70814,-3.42848 -22.41699,-61.27718 1.15261,-131.75463 59.269438,-166.342298 31.86602,-18.96475 68.26372,-23.65321 101.75958,-15.95575 l 6.93428,-27.320929 c 2.93545,-11.565601 18.38878,-13.808491 24.49136,-3.55447 l 38.26142,64.289779 c 3.78307,6.356615 1.69687,14.576218 -4.65974,18.359298 l -64.28977,38.26142 c -10.25403,6.10258 -22.76725,-3.23846 -19.83209,-14.80454 l 8.10629,-31.93704 z"
     id="path4140" />
  <path
     inkscape:connector-curvature="0"
     d="m 283.01326,134.86582 -148.59454,55.72295 c -13.35922,5.00077 -22.21773,17.85992 -22.21773,32.14785 l 0,160.81073 c 0,13.00202 7.35828,24.86101 18.93151,30.64762 l 148.59453,74.29727 c 9.64436,4.8579 21.00326,4.8579 30.64762,0 l 148.59453,-74.29727 c 11.64467,-5.78661 18.93152,-17.71704 18.93152,-30.64762 l 0,-160.81073 c 0,-14.28793 -8.85853,-27.07564 -22.21775,-32.07642 L 307.08842,134.93726 c -7.71548,-3.00047 -16.28825,-3.00047 -24.07516,-0.0714 z m 12.0733,44.36403 137.16418,51.43657 0,0.78584 -137.16418,55.72296 -137.16418,-55.72296 0,-0.78584 137.16418,-51.43657 z m 22.86069,254.32527 0,-106.37367 114.30349,-46.4358 0,95.65773 -114.30349,57.15174 z"
     id="path4" />
</svg>
