<?xml version="1.0" encoding="UTF-8" standalone="no"?>
<svg
   xmlns:dc="http://purl.org/dc/elements/1.1/"
   xmlns:cc="http://creativecommons.org/ns#"
   xmlns:rdf="http://www.w3.org/1999/02/22-rdf-syntax-ns#"
   xmlns:svg="http://www.w3.org/2000/svg"
   xmlns="http://www.w3.org/2000/svg"
   xmlns:sodipodi="http://sodipodi.sourceforge.net/DTD/sodipodi-0.dtd"
   xmlns:inkscape="http://www.inkscape.org/namespaces/inkscape"
   viewBox="0 0 512 512"
   id="svg2"
   version="1.1"
   inkscape:version="0.91 r13725"
   sodipodi:docname="mode_zoom.bw.svg">
  <metadata
     id="metadata10">
    <rdf:RDF>
      <cc:Work
         rdf:about="">
        <dc:format>image/svg+xml</dc:format>
        <dc:type
           rdf:resource="http://purl.org/dc/dcmitype/StillImage" />
      </cc:Work>
    </rdf:RDF>
  </metadata>
  <defs
     id="defs8" />
  <sodipodi:namedview
     pagecolor="#ffffff"
     bordercolor="#666666"
     borderopacity="1"
     objecttolerance="10"
     gridtolerance="10"
     guidetolerance="10"
     inkscape:pageopacity="0"
     inkscape:pageshadow="2"
     inkscape:window-width="1920"
     inkscape:window-height="1142"
     id="namedview6"
     showgrid="false"
     inkscape:zoom="0.4609375"
     inkscape:cx="260.33898"
     inkscape:cy="256"
     inkscape:window-x="0"
     inkscape:window-y="0"
     inkscape:window-maximized="1"
     inkscape:current-layer="svg2" />
  <path
     d="m 471.23805,417.39061 -86.18268,-86.18268 c -3.88989,-3.88989 -9.16285,-6.05094 -14.69514,-6.05094 l -14.09005,0 c 23.858,-30.51403 38.03448,-68.89427 38.03448,-110.64576 0,-99.32186 -80.4775,-179.799366 -179.79936,-179.799366 -99.32186,0 -179.799364,80.477506 -179.799364,179.799366 0,99.32186 80.477504,179.79936 179.799364,179.79936 41.75149,0 80.13174,-14.17649 110.64576,-38.03448 l 0,14.09005 c 0,5.53229 2.16105,10.80525 6.05094,14.69514 l 86.18268,86.18267 c 8.12555,8.12555 21.26473,8.12555 29.30384,0 l 24.46308,-24.46308 c 8.12555,-8.12555 8.12555,-21.26473 0.0865,-29.39028 z M 214.5053,325.15699 c -61.1145,0 -110.64576,-49.44482 -110.64576,-110.64576 0,-61.1145 49.44482,-110.64576 110.64576,-110.64576 61.1145,0 110.64576,49.44482 110.64576,110.64576 0,61.11449 -49.44482,110.64576 -110.64576,110.64576 z"
     id="path4"
     inkscape:connector-curvature="0" />
</svg>
