<?xml version="1.0" encoding="UTF-8" standalone="no"?>
<svg
   xmlns:dc="http://purl.org/dc/elements/1.1/"
   xmlns:cc="http://creativecommons.org/ns#"
   xmlns:rdf="http://www.w3.org/1999/02/22-rdf-syntax-ns#"
   xmlns:svg="http://www.w3.org/2000/svg"
   xmlns="http://www.w3.org/2000/svg"
   xmlns:sodipodi="http://sodipodi.sourceforge.net/DTD/sodipodi-0.dtd"
   xmlns:inkscape="http://www.inkscape.org/namespaces/inkscape"
   inkscape:version="1.0beta2 (2b71d25, 2019-12-03)"
   sodipodi:docname="cache_pipeline_output.svg"
   id="svg1656"
   version="1.1"
   width="24"
   viewBox="0 0 24 24"
   height="24"
   enable-background="new 0 0 24 24">
  <metadata
     id="metadata1662">
    <rdf:RDF>
      <cc:Work
         rdf:about="">
        <dc:format>image/svg+xml</dc:format>
        <dc:type
           rdf:resource="http://purl.org/dc/dcmitype/StillImage" />
      </cc:Work>
    </rdf:RDF>
  </metadata>
  <defs
     id="defs1660" />
  <sodipodi:namedview
     inkscape:current-layer="svg1656"
     inkscape:window-maximized="1"
     inkscape:window-y="23"
     inkscape:window-x="0"
     inkscape:cy="12"
     inkscape:cx="4.5641591"
     inkscape:zoom="25.888128"
     showgrid="false"
     id="namedview1658"
     inkscape:window-height="855"
     inkscape:window-width="1440"
     inkscape:pageshadow="2"
     inkscape:pageopacity="0"
     guidetolerance="10"
     gridtolerance="10"
     objecttolerance="10"
     borderopacity="1"
     inkscape:document-rotation="0"
     bordercolor="#666666"
     pagecolor="#ffffff" />
  <g
     id="g1630">
    <rect
       id="rect1628"
       width="24"
       height="24"
       fill="none" />
  </g>
  <g
     style="fill:#4a4a4a;fill-opacity:1"
     id="g1642">
    <g
       style="fill:#4a4a4a;fill-opacity:1"
       id="g1632" />
    <g
       style="fill:#4a4a4a;fill-opacity:1"
       id="g1640">
      <path
         style="fill:#4a4a4a;fill-opacity:1"
         id="path1634"
         d="M8,8H6v7c0,1.1,0.9,2,2,2h9v-2H8V8z" />
      <path
         style="fill:#4a4a4a;fill-opacity:1"
         id="path1636"
         d="M20,3h-8c-1.1,0-2,0.9-2,2v6c0,1.1,0.9,2,2,2h8c1.1,0,2-0.9,2-2V5C22,3.9,21.1,3,20,3z M20,11h-8V7h8V11z" />
      <path
         style="fill:#4a4a4a;fill-opacity:1"
         id="path1638"
         d="M4,12H2v7c0,1.1,0.9,2,2,2h9v-2H4V12z" />
    </g>
  </g>
  <g
     id="g1654"
     display="none">
    <g
       id="g1644"
       display="inline" />
    <g
       id="g1652"
       display="inline">
      <path
         id="path1646"
         d="M8,8H6v7c0,1.1,0.9,2,2,2h9v-2H8V8z" />
      <path
         id="path1648"
         d="M20,3h-8c-1.1,0-2,0.9-2,2v6c0,1.1,0.9,2,2,2h8c1.1,0,2-0.9,2-2V5C22,3.9,21.1,3,20,3z M20,11h-8V7h8V11z" />
      <path
         id="path1650"
         d="M4,12H2v7c0,1.1,0.9,2,2,2h9v-2H4V12z" />
    </g>
  </g>
</svg>
