<?xml version="1.0" encoding="UTF-8" standalone="no"?>
<svg
   xmlns:dc="http://purl.org/dc/elements/1.1/"
   xmlns:cc="http://creativecommons.org/ns#"
   xmlns:rdf="http://www.w3.org/1999/02/22-rdf-syntax-ns#"
   xmlns:svg="http://www.w3.org/2000/svg"
   xmlns="http://www.w3.org/2000/svg"
   xmlns:sodipodi="http://sodipodi.sourceforge.net/DTD/sodipodi-0.dtd"
   xmlns:inkscape="http://www.inkscape.org/namespaces/inkscape"
   inkscape:version="1.0beta2 (2b71d25, 2019-12-03)"
   sodipodi:docname="file_import.bw.svg"
   id="svg6"
   version="1.1"
   width="24"
   viewBox="0 0 24 24"
   height="24"
   fill="#000000">
  <metadata
     id="metadata12">
    <rdf:RDF>
      <cc:Work
         rdf:about="">
        <dc:format>image/svg+xml</dc:format>
        <dc:type
           rdf:resource="http://purl.org/dc/dcmitype/StillImage" />
      </cc:Work>
    </rdf:RDF>
  </metadata>
  <defs
     id="defs10" />
  <sodipodi:namedview
     inkscape:document-rotation="0"
     inkscape:current-layer="svg6"
     inkscape:window-maximized="1"
     inkscape:window-y="23"
     inkscape:window-x="56"
     inkscape:cy="12"
     inkscape:cx="12"
     inkscape:zoom="9.8333333"
     showgrid="false"
     id="namedview8"
     inkscape:window-height="1395"
     inkscape:window-width="2504"
     inkscape:pageshadow="2"
     inkscape:pageopacity="0"
     guidetolerance="10"
     gridtolerance="10"
     objecttolerance="10"
     borderopacity="1"
     bordercolor="#666666"
     pagecolor="#ffffff" />
  <path
     id="path4"
     fill="none"
     d="M0 0h24v24H0z" />
  <g
     transform="matrix(0.50822654,0,0,0.52928593,-12.16353,-10.303442)"
     aria-label=""
     id="text850"
     style="font-size:40px;line-height:1.25;font-family:fontello;-inkscape-font-specification:fontello;fill:#4a4a4a;fill-opacity:1">
    <path
       style="fill:#4a4a4a;fill-opacity:1"
       inkscape:connector-curvature="0"
       d="m 68.534802,44.818739 q 0,0.68 -0.72,1.48 l -7.48,8.84 q -0.96,1.12 -2.68,1.92 -1.72,0.8 -3.24,0.8 h -24.28 q -0.76,0 -1.32,-0.28 -0.56,-0.28 -0.6,-0.96 0,-0.68 0.68,-1.48 l 7.52,-8.84 q 0.96,-1.12 2.68,-1.92 1.72,-0.8 3.2,-0.8 h 24.28 q 0.76,0 1.36,0.28 0.6,0.28 0.6,0.96 z m -7.68,-7.68 v 3.6 h -18.56 q -2.12,0 -4.4,1.04 -2.28,1.04 -3.68,2.68 l -7.52,8.84 -0.08,0.12 -0.04,-0.28 q -0.04,-0.2 0,-0.28 v -21.44 q 0,-2.04 1.48,-3.52 1.48,-1.48 3.52,-1.48 h 7.16 q 2.04,0 3.52,1.48 1.48,1.48 1.48,3.52 v 0.72 h 12.12 q 2.08,0 3.52,1.48 1.44,1.48 1.48,3.52 z"
       id="path852" />
  </g>
</svg>
