<?xml version="1.0" encoding="UTF-8" standalone="no"?>
<svg
   xmlns:dc="http://purl.org/dc/elements/1.1/"
   xmlns:cc="http://creativecommons.org/ns#"
   xmlns:rdf="http://www.w3.org/1999/02/22-rdf-syntax-ns#"
   xmlns:svg="http://www.w3.org/2000/svg"
   xmlns="http://www.w3.org/2000/svg"
   xmlns:sodipodi="http://sodipodi.sourceforge.net/DTD/sodipodi-0.dtd"
   xmlns:inkscape="http://www.inkscape.org/namespaces/inkscape"
   viewBox="0 0 512 512"
   id="svg2"
   version="1.1"
   inkscape:version="0.92.2 5c3e80d, 2017-08-06"
   sodipodi:docname="auto_crop.bw.svg">
  <metadata
     id="metadata10">
    <rdf:RDF>
      <cc:Work
         rdf:about="">
        <dc:format>image/svg+xml</dc:format>
        <dc:type
           rdf:resource="http://purl.org/dc/dcmitype/StillImage" />
        <dc:title />
      </cc:Work>
    </rdf:RDF>
  </metadata>
  <defs
     id="defs8" />
  <sodipodi:namedview
     pagecolor="#ffffff"
     bordercolor="#666666"
     borderopacity="1"
     objecttolerance="10"
     gridtolerance="10"
     guidetolerance="10"
     inkscape:pageopacity="0"
     inkscape:pageshadow="2"
     inkscape:window-width="1440"
     inkscape:window-height="855"
     id="namedview6"
     showgrid="false"
     inkscape:zoom="0.921875"
     inkscape:cx="66.169488"
     inkscape:cy="256"
     inkscape:window-x="0"
     inkscape:window-y="1"
     inkscape:window-maximized="1"
     inkscape:current-layer="svg2" />
  <path
     d="M 68.103516 59.427734 L 68.103516 69.638672 L 68.103516 112.04297 L 24.675781 112.04297 L 13.351562 112.04297 L 13.351562 134.69336 L 24.675781 134.69336 L 68.103516 134.69336 L 68.103516 379.47656 L 21.421875 379.47656 L 10.097656 379.47656 L 10.097656 402.125 L 21.421875 402.125 L 68.103516 402.125 L 68.103516 447.78516 L 68.103516 457.99609 L 88.523438 457.99609 L 88.523438 447.78516 L 88.523438 402.125 L 431.06836 402.125 L 431.06836 447.78516 L 431.06836 457.99609 L 451.49023 457.99609 L 451.49023 447.78516 L 451.49023 402.125 L 489.49219 402.125 L 500.81641 402.125 L 500.81641 379.47656 L 489.49219 379.47656 L 451.49023 379.47656 L 451.49023 134.69336 L 492.74609 134.69336 L 504.07227 134.69336 L 504.07227 112.04297 L 492.74609 112.04297 L 451.49023 112.04297 L 451.49023 69.638672 L 451.49023 59.427734 L 431.06836 59.427734 L 431.06836 69.638672 L 431.06836 112.04297 L 88.523438 112.04297 L 88.523438 69.638672 L 88.523438 59.427734 L 68.103516 59.427734 z M 156.74609 159.18555 C 178.76263 159.18555 196.60938 177.03424 196.60938 199.05078 C 196.60937 221.06732 178.76263 238.91602 156.74609 238.91602 C 134.72954 238.91602 116.88086 221.06732 116.88086 199.05078 C 116.88086 177.03424 134.72954 159.18555 156.74609 159.18555 z M 327.59375 202.58984 C 329.77998 202.58984 331.96492 203.4239 333.63281 205.0918 L 395.93164 267.39062 L 395.93164 347.11914 L 122.57617 347.11914 L 122.57617 312.94922 L 173.48438 262.04102 C 176.82088 258.70522 182.23061 258.70522 185.56641 262.04102 L 225.08398 301.55859 L 321.55273 205.0918 C 323.22099 203.4239 325.40752 202.58984 327.59375 202.58984 z "
     id="path4"
     style="fill:#505050;fill-opacity:1" />
</svg>
