<?xml version="1.0" encoding="UTF-8" standalone="no"?>
<svg
   xmlns:dc="http://purl.org/dc/elements/1.1/"
   xmlns:cc="http://creativecommons.org/ns#"
   xmlns:rdf="http://www.w3.org/1999/02/22-rdf-syntax-ns#"
   xmlns:svg="http://www.w3.org/2000/svg"
   xmlns="http://www.w3.org/2000/svg"
   xmlns:sodipodi="http://sodipodi.sourceforge.net/DTD/sodipodi-0.dtd"
   xmlns:inkscape="http://www.inkscape.org/namespaces/inkscape"
   viewBox="0 0 512 512"
   id="svg2"
   version="1.1"
   inkscape:version="0.91 r13725"
   sodipodi:docname="animation_mode.bw.svg">
  <metadata
     id="metadata10">
    <rdf:RDF>
      <cc:Work
         rdf:about="">
        <dc:format>image/svg+xml</dc:format>
        <dc:type
           rdf:resource="http://purl.org/dc/dcmitype/StillImage" />
      </cc:Work>
    </rdf:RDF>
  </metadata>
  <defs
     id="defs8" />
  <sodipodi:namedview
     pagecolor="#ffffff"
     bordercolor="#666666"
     borderopacity="1"
     objecttolerance="10"
     gridtolerance="10"
     guidetolerance="10"
     inkscape:pageopacity="0"
     inkscape:pageshadow="2"
     inkscape:window-width="1920"
     inkscape:window-height="1142"
     id="namedview6"
     showgrid="false"
     inkscape:zoom="0.4609375"
     inkscape:cx="260.33898"
     inkscape:cy="256"
     inkscape:window-x="0"
     inkscape:window-y="0"
     inkscape:window-maximized="1"
     inkscape:current-layer="svg2" />
  <path
     d="m 433.89831,200.40747 c 0,67.54716 -54.75794,122.30439 -122.30509,122.30439 -7.79695,0 -15.42017,-0.738 -22.81198,-2.13269 l -16.68631,18.77244 a 16.677271,16.677271 0 0 1 -12.46539,5.59754 l -25.86683,0 0,27.79661 c 0,9.2111 -7.46686,16.67797 -16.67796,16.67797 l -27.79661,0 0,27.79661 c 0,9.2111 -7.46687,16.67797 -16.67797,16.67797 l -77.830509,0 c -9.211102,0 -16.677966,-7.46687 -16.677966,-16.67797 l 0,-54.24439 c 0,-4.42314 1.757441,-8.66559 4.884559,-11.79341 L 195.42493,238.74386 c -3.977,-12.05955 -6.13679,-24.94537 -6.13679,-38.33708 0,-67.54715 54.75723,-122.30439 122.30439,-122.305085 C 379.33912,78.101 433.89831,132.66019 433.89831,200.40747 Z M 311.59322,167.05085 c 0,18.4222 14.93373,33.35593 33.35593,33.35593 18.42221,0 33.35593,-14.93373 33.35593,-33.35593 0,-18.42221 -14.93372,-33.35593 -33.35593,-33.35593 -18.4222,0 -33.35593,14.93372 -33.35593,33.35593 z"
     id="path4"
     inkscape:connector-curvature="0" />
</svg>
