<?xml version="1.0" encoding="UTF-8" standalone="no"?>
<svg
   xmlns:dc="http://purl.org/dc/elements/1.1/"
   xmlns:cc="http://creativecommons.org/ns#"
   xmlns:rdf="http://www.w3.org/1999/02/22-rdf-syntax-ns#"
   xmlns:svg="http://www.w3.org/2000/svg"
   xmlns="http://www.w3.org/2000/svg"
   xmlns:sodipodi="http://sodipodi.sourceforge.net/DTD/sodipodi-0.dtd"
   xmlns:inkscape="http://www.inkscape.org/namespaces/inkscape"
   viewBox="0 0 448 512"
   id="svg2"
   version="1.1"
   inkscape:version="0.91 r13725"
   sodipodi:docname="animation_settings.bw.svg">
  <metadata
     id="metadata10">
    <rdf:RDF>
      <cc:Work
         rdf:about="">
        <dc:format>image/svg+xml</dc:format>
        <dc:type
           rdf:resource="http://purl.org/dc/dcmitype/StillImage" />
      </cc:Work>
    </rdf:RDF>
  </metadata>
  <defs
     id="defs8" />
  <sodipodi:namedview
     pagecolor="#ffffff"
     bordercolor="#666666"
     borderopacity="1"
     objecttolerance="10"
     gridtolerance="10"
     guidetolerance="10"
     inkscape:pageopacity="0"
     inkscape:pageshadow="2"
     inkscape:window-width="1920"
     inkscape:window-height="1142"
     id="namedview6"
     showgrid="false"
     inkscape:zoom="0.4609375"
     inkscape:cx="228.33898"
     inkscape:cy="256"
     inkscape:window-x="0"
     inkscape:window-y="0"
     inkscape:window-maximized="1"
     inkscape:current-layer="svg2" />
  <path
     d="m 407.32352,298.30508 c 0,101.2678 -82.05424,183.32204 -183.32204,183.32204 -101.26779,0 -183.322031,-82.05424 -183.322031,-183.32204 0,-91.66101 67.247461,-167.63389 155.118641,-181.11864 l 0,-30.406779 -24.67796,0 c -5.81695,0 -10.57627,-4.759322 -10.57627,-10.576271 l 0,-35.254237 c 0,-5.81695 4.75932,-10.576272 10.57627,-10.576272 l 105.76271,0 c 5.81695,0 10.57627,4.759322 10.57627,10.576272 l 0,35.254237 c 0,5.816949 -4.75932,10.576271 -10.57627,10.576271 l -24.67797,0 0,30.406779 c 33.05085,5.11187 63.19322,19.03729 87.87119,39.30848 l 24.23729,-24.23729 c 4.14237,-4.14238 10.84068,-4.14238 14.98305,0 L 404.23877,157.2 c 4.14237,4.14237 4.14237,10.84068 0,14.98305 l -25.91186,25.91187 -0.52882,0.52881 c 18.68475,28.55593 29.52543,62.84068 29.52543,99.68135 z m -155.11865,31.72882 0,-133.52543 c 0,-5.81694 -4.75932,-10.57627 -10.57627,-10.57627 l -35.25424,0 c -5.81694,0 -10.57627,4.75933 -10.57627,10.57627 l 0,133.52543 c 0,5.81695 4.75933,10.57627 10.57627,10.57627 l 35.25424,0 c 5.81695,0 10.57627,-4.75932 10.57627,-10.57627 z"
     id="path4"
     inkscape:connector-curvature="0" />
</svg>
